# AST/ASF file generated using VICON BodyLanguage
# -----------------------------------------------
:version 1.10
:name VICON
:units
  mass 1.0
  length 0.45
  angle deg
:documentation
   .ast/.asf automatically generated from VICON data using
   VICON BodyBuilder and BodyLanguage model FoxedUp or BRILLIANT.MOD
:root
   order TX TY TZ RX RY RZ
   axis XYZ
   position 0 0 0  
   orientation 0 0 0 
:bonedata
  begin
     id 1 
     name lhipjoint
     direction 0.57768 -0.667037 0.470475 
     length 2.36008 
     axis 0 0 0  XYZ
  end
  begin
     id 2 
     name lfemur
     direction 0.34202 -0.939693 0  
     length 6.97235  
     axis 0 0 20  XYZ
    dof rx ry rz
    limits (-160.0 20.0)
           (-70.0 70.0)
           (-60.0 70.0)
  end
  begin
     id 3 
     name ltibia
     direction 0.34202 -0.939693 0   
     length 6.93428   
     axis 0 0 20   XYZ
    dof rx
    limits (-10.0 170.0)
  end
  begin
     id 4 
     name lfoot
     direction 0.133018 -0.365463 0.921272   
     length 2.18603   
     axis -90 7.62852e-016 20   XYZ
    dof rx rz
    limits (-45.0 90.0)
           (-70.0 20.0)
  end
  begin
     id 5 
     name ltoes
     direction 1.53519e-011 -4.22055e-011 1   
     length 1.07924   
     axis -90 7.62852e-016 20   XYZ
    dof rx
    limits (-90.0 20.0)
  end
  begin
     id 6 
     name rhipjoint
     direction -0.577712 -0.667019 0.470462   
     length 2.36015  
     axis 0 0 0  XYZ 
  end
  begin
     id 7 
     name rfemur
     direction -0.34202 -0.939693 0   
     length 6.71195   
     axis 0 0 -20   XYZ
    dof rx ry rz
    limits (-160.0 20.0)
           (-70.0 70.0)
           (-70.0 60.0)
  end
  begin
     id 8 
     name rtibia
     direction -0.34202 -0.939693 0   
     length 7.04592   
     axis 0 0 -20   XYZ
    dof rx
    limits (-10.0 170.0)
 end
 begin
     id 9 
     name rfoot
     direction -0.113796 -0.312651 0.943027   
     length 2.03846  
     axis -90 -7.62852e-016 -20   XYZ
    dof rx rz
    limits (-45.0 90.0)
           (-20.0 70.0)
  end
  begin
     id 10 
     name rtoes
     direction -1.53586e-011 -4.218e-011 1   
     length 1.01562   
     axis -90 -7.62852e-016 -20   XYZ
    dof rx
    limits (-90.0 20.0)
  end
  begin
     id 11 
     name lowerback
     direction -0.0417299 0.991937 -0.119667   
     length 2.05257   
     axis 0 0 0   XYZ
    dof rx ry rz
    limits (-20.0 45.0)
           (-30.0 30.0)
           (-30.0 30.0)
  end
  begin
     id 12 
     name upperback
     direction -0.00017666 0.999999 0.00105178   
     length 2.05693   
     axis 0 0 0   XYZ
    dof rx ry rz
    limits (-20.0 45.0)
           (-30.0 30.0)
           (-30.0 30.0)
  end
  begin
     id 13 
     name thorax
     direction 0.0185169 0.998203 0.0569866   
     length 2.0932   
     axis 0 0 0   XYZ
    dof rx ry rz
    limits (-20.0 45.0)
           (-30.0 30.0)
           (-30.0 30.0)
  end
  begin
     id 14 
     name lowerneck
     direction -0.0212406 0.982645 0.184277   
     length 1.72509   
     axis 0 0 0   XYZ
    dof rx ry rz
    limits (-20.0 45.0)
           (-30.0 30.0)
           (-30.0 30.0)
  end
  begin
     id 15 
     name upperneck
     direction 0.00528579 0.965323 -0.261004   
     length 1.76294   
     axis 0 0 0   XYZ
    dof rx ry rz
    limits (-20.0 45.0)
           (-30.0 30.0)
           (-30.0 30.0)
  end
  begin
     id 16
     name head
     direction 0.00695421 0.994078 -0.108445  
     length 1.78678  
     axis 0 0 0   XYZ
    dof rx ry rz
    limits (-20.0 45.0)
           (-30.0 30.0)
           (-30.0 30.0)
  end
  begin
     id 17 
     name lclavicle
     direction 0.97277 0.211305 -0.095232  
     length 3.84823  
     axis 0 0 0   XYZ
    dof ry rz
    limits (-20.0 10.0)
           (0.0 20.0)
  end
  begin
     id 18 
     name lhumerus
     direction 1 -4.48957e-011 -1.98313e-027   
     length 4.97185   
     axis 180 -30 -90   XYZ
    dof rx ry rz
    limits (-60.0 90.0)
           (-90.0 90.0)
           (-90.0 90.0)
  end
  begin
     id 19
     name lradius
     direction 1 -4.4898e-011 7.31063e-027   
     length 3.35811   
     axis 180 -30 -90   XYZ
    dof rx
    limits (-10.0 170.0)
  end
  begin
     id 20
     name lwrist
     direction 1 -4.48938e-011 9.95048e-027   
     length 1.67905   
     axis -8.75986e-015 90 90   XYZ
    dof ry
    limits (-180.0 0.0)
 end
  begin
     id 21 
     name lhand
     direction 1 -4.4901e-011 1.9901e-026   
     length 0.622776   
     axis -1.26985e-014 90 90   XYZ
    dof rx rz
    limits (-90.0 90.0)
           (-45.0 45.0)
  end
  begin
     id 22 
     name lfingers
     direction 1 -4.48961e-011 3.98019e-026   
     length 0.502098   
     axis -2.5397e-014 90 90   XYZ
    dof rx
    limits (0.0 90.0)
  end
  begin
     id 23
     name lthumb
     direction 0.707107 -6.34933e-011 0.707107   
     length 0.720915   
     axis -90 45 2.85299e-015   XYZ
    dof rx rz
    limits (-45.0 45.0)
           (-45.0 45.0)
  end
  begin
     id 24 
     name rclavicle
     direction -0.990867 0.133739 -0.0172226   
     length 3.78845  
     axis 0 0 0   XYZ 
    dof ry rz
    limits (-10.0 20.0)
           (-20.0 0.0)
  end
  begin
     id 25 
     name rhumerus
     direction -1 -4.48972e-011 -1.99267e-027  
     length 4.96493   
     axis 180 30 90   XYZ
    dof rx ry rz
    limits (-90.0 60.0)
           (-90.0 90.0)
           (-90.0 90.0)
  end
  begin
     id 26 
     name rradius
     direction -1 -4.48969e-011 8.96093e-027   
     length 3.34929   
     axis 180 30 90   XYZ
    dof rx
    limits (-10.0 170.0)
  end
  begin
     id 27 
     name rwrist
     direction -1 -4.48953e-011 9.95048e-027   
     length 1.67464   
     axis -8.75986e-015 -90 -90   XYZ
    dof ry
    limits (-180.0 0.0)
  end
  begin
     id 28
     name rhand
     direction -1 -4.49001e-011 1.9901e-026   
     length 0.638041   
     axis -1.26985e-014 -90 -90   XYZ
    dof rx rz
    limits (-90.0 90.0)
           (-45.0 45.0)
  end
  begin
     id 29
     name rfingers
     direction -1 -4.48967e-011 3.98019e-026   
     length 0.514405   
     axis -2.5397e-014 -90 -90   XYZ
    dof rx
    limits (0.0 90.0)
  end
  begin
     id 30
     name rthumb
     direction -0.707107 -6.34904e-011 0.707107   
     length 0.738586   
     axis -90 -45 -2.85299e-015   XYZ
    dof rx rz
    limits (-45.0 45.0)
           (-45.0 45.0)
  end
:hierarchy
  begin
    root lhipjoint rhipjoint lowerback
    lhipjoint lfemur
    lfemur ltibia
    ltibia lfoot
    lfoot ltoes
    rhipjoint rfemur
    rfemur rtibia
    rtibia rfoot
    rfoot rtoes
    lowerback upperback
    upperback thorax
    thorax lowerneck lclavicle rclavicle
    lowerneck upperneck
    upperneck head
    lclavicle lhumerus
    lhumerus lradius
    lradius lwrist
    lwrist lhand lthumb
    lhand lfingers
    rclavicle rhumerus
    rhumerus rradius
    rradius rwrist
    rwrist rhand rthumb
    rhand rfingers
  end

#!OML:ASF E:\Mandelcareful walks\Project 1\Capture day 1\Session 1\Subject1.ASF
:FULLY-SPECIFIED
:DEGREES
42
root -21.7335 16.3854 2.91681 -174.434 50.8459 175.331
lowerback -2.62317 7.73734 2.75962
upperback 8.12211 10.4714 1.4227
thorax 10.3265 5.3787 1.25287
lowerneck -7.70833 19.0903 15.9268
upperneck 12.2526 28.6733 -20.9121
head 10.6593 13.2438 -5.05907
rclavicle 6.59965e-014 -5.40694e-014
rhumerus -12.5461 1.37164 -86.2304
rradius 40.0067
rwrist -27.8737
rhand -12.3323 -42.8705
rfingers 7.12502
rthumb 13.7367 -72.397
lclavicle 6.59965e-014 -5.40694e-014
lhumerus -29.1192 -5.80513 58.1225
lradius 63.1581
lwrist -21.5919
lhand -41.5636 -17.7057
lfingers 7.12502
lthumb -14.4747 11.7694
rfemur -7.73439 -15.6173 9.61111
rtibia 23.0106
rfoot -21.0772 -24.3286
rtoes -1.96845
lfemur -29.5299 0.518161 -15.3544
ltibia 29.043
lfoot -5.31215 5.83152
ltoes -15.1818
43
root -21.7215 16.3895 2.90521 -174.393 50.956 175.156
lowerback -2.88092 7.75793 2.62452
upperback 8.06419 10.4957 1.362
thorax 10.4013 5.37438 1.29705
lowerneck -7.56831 19.2701 16.038
upperneck 12.1304 28.9523 -21.051
head 10.6889 13.3831 -5.05637
rclavicle -1.74931e-014 -5.725e-014
rhumerus -12.6491 1.73947 -86.2478
rradius 39.0826
rwrist -26.6796
rhand -12.4277 -41.9128
rfingers 7.12502
rthumb 13.6449 -71.4456
lclavicle -1.74931e-014 -5.725e-014
lhumerus -29.0925 -5.57178 58.2657
lradius 63.1731
lwrist -21.6143
lhand -41.8803 -17.5736
lfingers 7.12502
lthumb -14.7798 11.8794
rfemur -7.81528 -15.634 9.51138
rtibia 22.9209
rfoot -20.9979 -24.2266
rtoes -2.20986
lfemur -29.5641 0.51545 -15.4541
ltibia 28.9009
lfoot -5.35929 5.93153
ltoes -14.8923
44
root -21.7052 16.399 2.89488 -174.349 51.0121 174.961
lowerback -3.1592 7.82984 2.49821
upperback 7.94822 10.5876 1.24614
thorax 10.4373 5.40395 1.28513
lowerneck -7.49916 19.3484 16.3761
upperneck 12.1091 29.088 -21.2396
head 10.7856 13.4508 -5.12317
rclavicle -6.52014e-014 -4.77083e-015
rhumerus -12.8354 1.92175 -86.2747
rradius 38.0765
rwrist -25.4188
rhand -22.9628 -34.7431
rfingers 7.12502
rthumb 3.47898 -64.6944
lclavicle -6.52014e-014 -4.77083e-015
lhumerus -28.8646 -5.53452 58.4395
lradius 63.0244
lwrist -21.6679
lhand -41.6957 -17.3052
lfingers 7.12502
lthumb -14.602 12.1607
rfemur -7.87952 -15.5795 9.42427
rtibia 22.7574
rfoot -20.9183 -24.2981
rtoes -2.19388
lfemur -29.5879 0.436515 -15.5471
ltibia 28.7111
lfoot -5.3918 6.08361
ltoes -14.471
45
root -21.6861 16.4062 2.88454 -174.351 50.9877 174.766
lowerback -3.39625 7.85815 2.36137
upperback 7.78365 10.6208 1.11817
thorax 10.3932 5.40535 1.24619
lowerneck -7.40015 19.3796 16.948
upperneck 12.1159 29.2212 -21.6547
head 10.9709 13.5163 -5.29041
rclavicle 1.90833e-014 2.70347e-014
rhumerus -13.1071 1.8532 -86.3707
rradius 36.9222
rwrist -23.9141
rhand -11.4552 -40.0912
rfingers 7.12502
rthumb 14.5819 -69.5587
lclavicle 1.90833e-014 2.70347e-014
lhumerus -28.7501 -5.61352 58.6769
lradius 62.8377
lwrist -21.4277
lhand -41.589 -16.7428
lfingers 7.12502
lthumb -14.4992 12.7306
rfemur -7.80848 -15.5252 9.32941
rtibia 22.4874
rfoot -20.9482 -24.3911
rtoes -1.49644
lfemur -29.5582 0.318974 -15.6779
ltibia 28.4864
lfoot -5.25734 6.2433
ltoes -15.2233
46
root -21.6677 16.4093 2.87478 -174.374 50.9378 174.623
lowerback -3.60918 7.76814 2.14755
upperback 7.64392 10.4949 1.11693
thorax 10.3189 5.3207 1.35525
lowerneck -7.48791 19.5958 16.6205
upperneck 12.2397 29.3978 -21.0604
head 10.8933 13.5978 -5.01045
rclavicle 5.88403e-014 -1.90833e-014
rhumerus -13.3323 1.64183 -86.3773
rradius 35.5439
rwrist -21.9235
rhand -11.1949 -38.9918
rfingers 7.12502
rthumb 14.8327 -68.4409
lclavicle 5.88403e-014 -1.90833e-014
lhumerus -28.9383 -5.40322 59.1239
lradius 62.6539
lwrist -20.7341
lhand -41.4219 -17.0492
lfingers 7.12502
lthumb -14.3382 12.4357
rfemur -7.64248 -15.4748 9.26064
rtibia 22.1598
rfoot -20.9139 -24.5182
rtoes -1.02182
lfemur -29.4411 0.142496 -15.7478
ltibia 28.2145
lfoot -5.15403 6.37617
ltoes -15.967
47
root -21.6489 16.4184 2.86644 -174.381 50.9606 174.452
lowerback -3.85918 7.72383 1.83496
upperback 7.47776 10.4313 1.1786
thorax 10.2077 5.25561 1.59103
lowerneck -7.5207 19.7272 16.2707
upperneck 12.2742 29.5119 -20.6578
head 10.7965 13.6559 -4.81404
rclavicle -1.89243e-013 -1.59028e-014
rhumerus -13.59 1.28438 -86.1905
rradius 34.1206
rwrist -19.8393
rhand -10.1888 -38.0718
rfingers 7.12502
rthumb 15.8018 -67.4469
lclavicle -1.89243e-013 -1.59028e-014
lhumerus -29.1562 -5.27111 59.8153
lradius 62.4121
lwrist -20.0255
lhand -41.0917 -17.658
lfingers 7.12502
lthumb -14.02 11.8492
rfemur -7.51001 -15.3044 9.20409
rtibia 21.7688
rfoot -20.8616 -24.7398
rtoes -0.95263
lfemur -29.3035 -0.0857823 -15.7661
ltibia 27.8974
lfoot -5.20724 6.5757
ltoes -15.389
48
root -21.6285 16.4338 2.85888 -174.289 51.0381 174.213
lowerback -4.23495 7.75595 1.70028
upperback 7.23737 10.4656 1.00101
thorax 10.1719 5.25617 1.51376
lowerneck -7.70045 19.809 16.3126
upperneck 12.4056 29.5363 -20.3662
head 10.828 13.6591 -4.70198
rclavicle -2.22639e-014 3.97569e-014
rhumerus -13.7832 0.783442 -86.246
rradius 32.6656
rwrist -17.9708
rhand -21.9449 -31.6578
rfingers 7.12502
rthumb 4.462 -61.5908
lclavicle -2.22639e-014 3.97569e-014
lhumerus -29.1471 -5.50309 60.307
lradius 62.0739
lwrist -19.757
lhand -40.811 -17.7729
lfingers 7.12502
lthumb -13.7495 11.7528
rfemur -7.54983 -15.045 9.15984
rtibia 21.374
rfoot -20.9176 -24.9884
rtoes -0.339422
lfemur -29.2543 -0.342703 -15.7985
ltibia 27.4492
lfoot -5.16366 6.89454
ltoes -14.2306
49
root -21.6065 16.449 2.85228 -174.363 51.2599 173.838
lowerback -4.62813 7.80098 1.3522
upperback 7.019 10.5355 0.876975
thorax 10.12 5.25731 1.61174
lowerneck -7.72181 19.8117 16.5607
upperneck 12.3843 29.5577 -20.5288
head 10.9003 13.6684 -4.76985
rclavicle 1.11319e-014 -5.08889e-014
rhumerus -13.8808 -0.547656 -86.1561
rradius 31.1122
rwrist -15.8086
rhand -19.007 -31.8745
rfingers 7.12502
rthumb 7.29844 -61.7286
lclavicle 1.11319e-014 -5.08889e-014
lhumerus -29.2506 -5.65682 60.9772
lradius 61.6759
lwrist -20.004
lhand -40.7922 -17.6855
lfingers 7.12502
lthumb -13.7314 11.8415
rfemur -7.54306 -14.5506 9.01813
rtibia 20.9358
rfoot -21.0102 -25.2847
rtoes 0.16802
lfemur -29.0699 -0.531312 -15.9244
ltibia 26.9043
lfoot -5.05954 7.2919
ltoes -13.9287
50
root -21.5838 16.4631 2.84784 -175.258 51.7153 172.794
lowerback -4.71605 7.8598 0.601618
upperback 6.88649 10.6849 0.646074
thorax 9.92778 5.28324 1.77799
lowerneck -7.64346 19.8276 16.8464
upperneck 12.2556 29.5872 -20.7315
head 10.9316 13.6922 -4.86315
rclavicle 1.1609e-013 2.54444e-014
rhumerus -13.9176 -3.20247 -86.0273
rradius 29.5867
rwrist -13.1248
rhand -5.11006 -35.9675
rfingers 7.12502
rthumb 20.6877 -64.8849
lclavicle 1.1609e-013 2.54444e-014
lhumerus -29.42 -5.69709 61.6401
lradius 61.2801
lwrist -20.3495
lhand -41.0095 -17.5873
lfingers 7.12502
lthumb -13.9408 11.9254
rfemur -7.26426 -13.7183 8.34354
rtibia 20.5048
rfoot -21.1828 -25.613
rtoes 0.100011
lfemur -28.4698 -0.589227 -16.5317
ltibia 26.2604
lfoot -4.96197 7.7547
ltoes -14.5591
51
root -21.5562 16.4841 2.83235 -175.077 52.0106 172.728
lowerback -5.22137 7.8357 0.380774
upperback 6.64525 10.6443 0.640122
thorax 9.91713 5.23452 1.93396
lowerneck -7.75611 19.9233 16.7559
upperneck 12.3715 29.6931 -20.5209
head 10.9567 13.7346 -4.74717
rclavicle 3.93594e-014 -7.95139e-015
rhumerus -14.291 -4.79478 -85.845
rradius 28.6355
rwrist -11.1871
rhand -5.83915 -36.2494
rfingers 7.12502
rthumb 19.987 -65.2415
lclavicle 3.93594e-014 -7.95139e-015
lhumerus -29.7664 -5.47988 62.4305
lradius 60.9335
lwrist -20.4741
lhand -41.2107 -17.706
lfingers 7.12502
lthumb -14.1347 11.7932
rfemur -7.14469 -13.0556 8.40563
rtibia 19.9241
rfoot -21.2957 -25.9598
rtoes -0.106722
lfemur -28.2272 -0.65137 -16.4953
ltibia 25.6585
lfoot -4.78435 8.14427
ltoes -14.8132
52
root -21.5288 16.5053 2.81033 -175.032 52.2824 172.343
lowerback -5.88765 7.79073 0.0694129
upperback 6.35255 10.5916 0.525086
thorax 9.9501 5.17441 2.04256
lowerneck -7.87943 19.9677 16.5718
upperneck 12.5109 29.6813 -20.1359
head 10.9189 13.7275 -4.59849
rclavicle -8.74653e-014 4.77083e-014
rhumerus -14.9607 -5.24998 -85.7537
rradius 27.9005
rwrist -9.63851
rhand -6.57143 -36.4812
rfingers 7.12502
rthumb 19.283 -65.5452
lclavicle -8.74653e-014 4.77083e-014
lhumerus -30.1636 -5.25088 63.1909
lradius 60.6079
lwrist -20.397
lhand -41.4774 -18.0976
lfingers 7.12502
lthumb -14.3917 11.3835
rfemur -7.04153 -12.6373 8.22959
rtibia 19.1703
rfoot -21.204 -26.2092
rtoes -0.39808
lfemur -28.0945 -0.943532 -16.6263
ltibia 25.0977
lfoot -4.80288 8.66757
ltoes -14.4319
53
root -21.5057 16.5263 2.79579 -174.426 52.5203 172.552
lowerback -6.55167 7.78527 0.189483
upperback 5.97554 10.5419 0.455689
thorax 9.95995 5.14445 1.96648
lowerneck -7.92225 19.8908 16.4798
upperneck 12.6134 29.5194 -19.8559
head 10.8618 13.6593 -4.54045
rclavicle 7.95139e-015 2.38542e-014
rhumerus -15.6076 -6.14896 -85.6486
rradius 26.506
rwrist -6.78443
rhand -6.35937 -35.7866
rfingers 7.12502
rthumb 19.4869 -64.8301
lclavicle 7.95139e-015 2.38542e-014
lhumerus -30.6206 -4.99986 63.9552
lradius 60.3354
lwrist -20.3986
lhand -41.5825 -18.4993
lfingers 7.12502
lthumb -14.4929 10.9745
rfemur -6.98098 -11.9243 8.52518
rtibia 18.1874
rfoot -21.1694 -26.7944
rtoes -0.248454
lfemur -28.1698 -1.26553 -16.3037
ltibia 24.6459
lfoot -5.03486 9.21164
ltoes -14.2915
54
root -21.4793 16.5467 2.77863 -174.18 52.7828 172.372
lowerback -7.30091 7.75099 0.0554955
upperback 5.68616 10.4932 0.344762
thorax 10.0783 5.09775 2.00086
lowerneck -8.19561 19.7559 16.2382
upperneck 12.94 29.2495 -19.3566
head 10.8411 13.5218 -4.40143
rclavicle -2.73528e-013 3.81667e-014
rhumerus -15.9542 -8.27829 -85.2397
rradius 25.2865
rwrist -4.5977
rhand -6.80527 -35.2192
rfingers 7.12502
rthumb 19.0581 -64.3054
lclavicle -2.73528e-013 3.81667e-014
lhumerus -31.0452 -4.58731 64.7668
lradius 60.135
lwrist -20.517
lhand -41.5705 -18.5777
lfingers 7.12502
lthumb -14.4814 10.897
rfemur -6.83119 -11.2601 8.50518
rtibia 17.1692
rfoot -21.1522 -27.2943
rtoes 0.237305
lfemur -28.1154 -1.69741 -16.2174
ltibia 24.1563
lfoot -5.30472 9.87166
ltoes -14.0307
55
root -21.4486 16.5654 2.76391 -173.936 53.1183 172.176
lowerback -8.1111 7.76884 -0.158816
upperback 5.41052 10.5301 0.229754
thorax 10.2325 5.08639 2.09655
lowerneck -8.81345 19.5087 15.8473
upperneck 13.6373 28.7625 -18.4748
head 10.8834 13.262 -4.14402
rclavicle 7.71285e-014 -5.40694e-014
rhumerus -16.3413 -10.5049 -84.8331
rradius 24.2401
rwrist -2.72728
rhand -5.67268 -35.4284
rfingers 7.12502
rthumb 20.147 -64.4037
lclavicle 7.71285e-014 -5.40694e-014
lhumerus -31.3093 -4.22605 65.6742
lradius 59.9173
lwrist -20.5561
lhand -41.7205 -18.5052
lfingers 7.12502
lthumb -14.6258 10.9591
rfemur -6.67379 -10.4574 8.47618
rtibia 16.0921
rfoot -21.1412 -27.8507
rtoes 0.758078
lfemur -28.0252 -2.0418 -16.1287
ltibia 23.6239
lfoot -5.48503 10.5436
ltoes -13.9711
56
root -21.4112 16.5808 2.74681 -173.764 53.3443 171.889
lowerback -9.06085 7.67411 -0.550601
upperback 5.15735 10.441 0.175336
thorax 10.451 4.99721 2.34992
lowerneck -9.2696 19.1637 15.6015
upperneck 14.1941 28.2225 -17.9572
head 10.9363 12.9863 -4.0422
rclavicle -8.11041e-014 -6.36111e-015
rhumerus -16.7973 -12.641 -84.3945
rradius 23.4708
rwrist -1.13132
rhand -5.77032 -35.3763
rfingers 7.12502
rthumb 20.0531 -64.3614
lclavicle -8.11041e-014 -6.36111e-015
lhumerus -31.7057 -3.62672 66.6895
lradius 59.7226
lwrist -20.4176
lhand -41.7356 -18.7765
lfingers 7.12502
lthumb -14.6404 10.6867
rfemur -6.4422 -9.71959 8.38785
rtibia 15.0059
rfoot -21.1024 -28.4682
rtoes 1.01055
lfemur -27.8951 -2.20117 -16.1976
ltibia 22.9945
lfoot -5.50693 10.8651
ltoes -14.6334
